<mxfile host="app.diagrams.net" modified="2023-04-02T09:02:47.617Z" agent="Mozilla/5.0 (Windows NT 10.0; Win64; x64) AppleWebKit/537.36 (KHTML, like Gecko) Chrome/111.0.0.0 Safari/537.36 Edg/111.0.1661.54" etag="K5irwcPz3HtcJhtGjR2K" version="21.1.2" type="github">
  <diagram name="第 1 页" id="mdI2nIm1Pl6YybQ9iO6p">
    <mxGraphModel dx="1050" dy="611" grid="1" gridSize="10" guides="1" tooltips="1" connect="1" arrows="1" fold="1" page="1" pageScale="1" pageWidth="827" pageHeight="1169" math="0" shadow="0">
      <root>
        <mxCell id="0" />
        <mxCell id="1" parent="0" />
        <mxCell id="jJk5lquIukMNSzISz-vN-5" style="edgeStyle=orthogonalEdgeStyle;rounded=0;orthogonalLoop=1;jettySize=auto;html=1;entryX=0.5;entryY=1;entryDx=0;entryDy=0;" parent="1" target="jJk5lquIukMNSzISz-vN-4" edge="1">
          <mxGeometry relative="1" as="geometry">
            <mxPoint x="394" y="250" as="sourcePoint" />
          </mxGeometry>
        </mxCell>
        <mxCell id="jJk5lquIukMNSzISz-vN-3" value="" style="swimlane;startSize=0;" parent="1" vertex="1">
          <mxGeometry x="280" y="1440" width="200" height="200" as="geometry" />
        </mxCell>
        <mxCell id="jJk5lquIukMNSzISz-vN-4" value="test" style="whiteSpace=wrap;html=1;aspect=fixed;" parent="1" vertex="1">
          <mxGeometry x="334" y="110" width="80" height="80" as="geometry" />
        </mxCell>
      </root>
    </mxGraphModel>
  </diagram>
</mxfile>
